<?xml version="1.0" standalone="no"?>
<!DOCTYPE svg PUBLIC "-//W3C//DTD SVG 20010904//EN"
 "http://www.w3.org/TR/2001/REC-SVG-20010904/DTD/svg10.dtd">
<svg version="1.0" xmlns="http://www.w3.org/2000/svg"
 width="344.000000pt" height="344.000000pt" viewBox="0 0 344.000000 344.000000"
 preserveAspectRatio="xMidYMid meet">

<g transform="translate(0.000000,344.000000) scale(0.100000,-0.100000)"
fill="#000000" stroke="none">
<path d="M1540 3294 c-539 -68 -1014 -407 -1246 -891 -57 -118 -63 -150 -34
-180 25 -28 71 -30 92 -5 8 9 40 69 70 132 170 351 474 617 843 739 161 53
276 71 455 71 179 0 294 -18 455 -71 219 -73 400 -184 565 -349 165 -165 276
-346 349 -565 53 -161 71 -276 71 -455 0 -179 -18 -294 -71 -455 -73 -219
-184 -400 -349 -565 -165 -165 -346 -276 -565 -349 -161 -53 -276 -71 -455
-71 -179 0 -294 18 -455 71 -217 72 -400 185 -564 349 -119 119 -207 241 -279
390 -30 63 -62 123 -70 133 -21 24 -67 22 -92 -5 -29 -31 -23 -63 34 -181 77
-161 176 -298 310 -432 227 -226 465 -357 781 -431 112 -26 135 -28 335 -28
201 0 223 2 335 28 318 75 556 206 781 430 224 225 355 463 430 781 26 112 28
134 28 335 0 201 -2 223 -28 335 -75 318 -205 555 -431 781 -223 224 -465 357
-780 429 -103 24 -146 28 -300 30 -99 2 -196 1 -215 -1z"/>
<path d="M1742 2317 c-44 -47 -37 -57 205 -299 l228 -228 -996 0 c-988 0 -995
0 -1017 -20 -29 -27 -29 -73 0 -100 22 -20 29 -20 1017 -20 l996 0 -228 -228
c-243 -244 -252 -255 -204 -300 48 -45 53 -41 369 276 229 229 298 303 298
322 0 19 -69 93 -298 322 -318 319 -325 324 -370 275z"/>
</g>
</svg>
